<?xml version="1.0" encoding="UTF-8"?><svg id="Layer_1" xmlns="http://www.w3.org/2000/svg" viewBox="0 0 668.12 502.29"><path d="m48.6,359.38v59.67c0,2.89.36,5.41,1.08,7.58.72,2.17,2.08,4.01,4.09,5.53,2,1.53,4.77,2.81,8.3,3.85,3.53,1.04,8.18,1.8,13.95,2.29v4.81c-6.42-.32-12.75-.56-19.01-.72-6.26-.16-12.59-.24-19.01-.24s-12.75.08-19.01.24c-6.26.16-12.59.4-19.01.72v-4.81c4.81,0,8.66-.44,11.55-1.32,2.89-.88,5.09-2.17,6.62-3.85,1.52-1.68,2.48-3.73,2.89-6.13.4-2.41.6-5.13.6-8.18v-59.43H7.22l1.92-7.22h12.51v-26.47c0-6.89,1-13.63,3.01-20.21,2-6.58,4.93-12.43,8.78-17.56,3.85-5.13,8.62-9.26,14.32-12.39,5.69-3.13,12.15-4.69,19.37-4.69,9.62,0,17.52,2.01,23.7,6.01,6.17,4.01,9.26,9.86,9.26,17.56,0,4.17-1.17,7.22-3.49,9.14-2.33,1.92-5.41,2.89-9.26,2.89-2.09,0-3.93-.2-5.53-.6-1.61-.4-3.21-.92-4.81-1.56-.16-9.3-.96-16-2.41-20.09-1.44-4.09-4.73-6.13-9.86-6.13-2.89,0-5.33.76-7.34,2.29-2.01,1.53-3.65,3.49-4.93,5.9-1.29,2.41-2.25,5.13-2.89,8.18-.64,3.05-.96,6.01-.96,8.9v48.84h30.8v7.22h-30.8Z" style="stroke-width:0px;"/><path d="m135.45,373.82c0-10.91-3.85-16.36-11.55-16.36-2.73,0-4.93.48-6.62,1.44-1.68.96-2.97,2.21-3.85,3.73-.88,1.53-1.48,3.25-1.8,5.17-.32,1.92-.48,3.77-.48,5.53,0,1.61.04,2.93.12,3.97.08,1.04.2,1.97.36,2.77-5.94-1.28-11.47-2.48-16.6-3.61-5.14-1.12-10.35-2.08-15.64-2.89.64-5.13,2.24-9.34,4.81-12.63,2.56-3.29,5.73-5.85,9.5-7.7,3.77-1.84,7.9-3.13,12.39-3.85,4.49-.72,8.9-1.08,13.23-1.08,5.13,0,10.35.44,15.64,1.32,5.29.88,10.06,2.41,14.32,4.57,4.25,2.17,7.74,5.05,10.47,8.66,2.73,3.61,4.09,8.14,4.09,13.59,0,2.89-.08,6.1-.24,9.62-.16,3.53-.28,7.02-.36,10.47-.08,3.45-.2,6.74-.36,9.86-.16,3.13-.24,5.74-.24,7.82,0,3.53.64,6.74,1.92,9.62,1.28,2.89,4.01,4.33,8.18,4.33,2.73,0,5.17-.72,7.34-2.17,2.17-1.44,4.21-3.04,6.14-4.81l3.85,4.33c-1.92,1.61-4.05,3.61-6.38,6.02-2.33,2.41-4.73,4.65-7.22,6.74-2.49,2.09-5.09,3.89-7.82,5.41-2.73,1.52-5.53,2.29-8.42,2.29-4.01,0-7.94-1.44-11.79-4.33-3.85-2.89-7.14-5.69-9.86-8.42-5.94,3.69-12.19,6.74-18.77,9.14-6.58,2.41-13.39,3.61-20.45,3.61-3.37,0-6.7-.56-9.98-1.68-3.29-1.12-6.22-2.68-8.78-4.69-2.57-2-4.61-4.37-6.13-7.1-1.53-2.73-2.29-5.61-2.29-8.66,0-7.7,2.08-13.67,6.26-17.92,4.17-4.25,9.42-7.46,15.76-9.62,6.33-2.17,13.19-3.49,20.57-3.97,7.38-.48,14.27-.72,20.69-.72v-17.8Zm-32.48,41.86c0,4.97,1.44,8.86,4.33,11.67,2.89,2.81,6.89,4.21,12.03,4.21,2.89,0,5.73-.48,8.54-1.44,2.8-.96,5.33-2.48,7.58-4.57-.16-2.24-.28-4.33-.36-6.25-.08-1.92-.12-3.93-.12-6.02,0-2.24.04-4.41.12-6.5.08-2.08.2-4.25.36-6.5-2.25-.32-4.37-.56-6.38-.72-2.01-.16-4.13-.24-6.38-.24-4.81,0-9.3,1.36-13.47,4.09-4.17,2.73-6.26,6.82-6.26,12.27Z" style="stroke-width:0px;"/><path d="m276.44,426.75c-7.22,6.1-14.56,10.83-22.01,14.2-7.46,3.37-15.28,5.05-23.46,5.05-7.22,0-14.2-1.08-20.93-3.25-6.74-2.17-12.71-5.33-17.92-9.5-5.21-4.17-9.42-9.3-12.63-15.4-3.21-6.09-4.81-12.99-4.81-20.69s1.6-14.59,4.81-20.69c3.21-6.09,7.42-11.23,12.63-15.4,5.21-4.17,11.19-7.34,17.92-9.5,6.74-2.17,13.71-3.25,20.93-3.25,2.89,0,5.57.16,8.06.48,2.48.32,4.93.64,7.34.96,2.41.32,4.77.64,7.1.96,2.32.32,4.61.48,6.86.48h6.01c0,2.41.04,5.38.12,8.9.08,3.53.24,7.26.48,11.19.24,3.93.52,7.82.84,11.67.32,3.85.72,7.38,1.2,10.59h-4.57c-1.29-3.37-2.89-7.18-4.81-11.43-1.92-4.25-4.29-8.18-7.1-11.79-2.81-3.61-6.06-6.65-9.74-9.14-3.69-2.48-7.94-3.73-12.75-3.73-7.86,0-13.92,2.81-18.17,8.42-4.25,5.62-6.38,12.59-6.38,20.93,0,6.42.88,12.39,2.65,17.92,1.76,5.53,4.29,10.27,7.58,14.2,3.29,3.93,7.26,7.02,11.91,9.26,4.65,2.25,9.78,3.37,15.4,3.37,5.13,0,9.82-.84,14.08-2.53,4.25-1.68,8.86-4.29,13.83-7.82l5.53,5.53Z" style="stroke-width:0px;"/><path d="m264.65,360.34v-5.53c5.13-.32,9.74-1.52,13.83-3.61,4.09-2.08,7.7-4.73,10.83-7.94,3.13-3.21,5.9-6.86,8.3-10.95,2.41-4.09,4.49-8.3,6.26-12.63h4.81v32.48h33.2v8.18h-33.2v51.01c0,7.06,1.08,11.95,3.25,14.68,2.17,2.73,5.97,4.09,11.43,4.09,2.89,0,5.97-.96,9.26-2.89,3.29-1.92,6.29-4.25,9.02-6.98l5.05,5.53c-2.41,2.09-5.14,4.33-8.18,6.74-3.05,2.41-6.3,4.61-9.74,6.62-3.45,2.01-6.9,3.65-10.35,4.93-3.45,1.28-6.78,1.92-9.98,1.92-8.34,0-14.88-2.04-19.61-6.14-4.73-4.09-7.1-10.22-7.1-18.41v-61.11h-17.08Z" style="stroke-width:0px;"/><path d="m397.69,348.31c7.22,0,14.2,1.08,20.93,3.25,6.74,2.17,12.71,5.33,17.92,9.5,5.21,4.17,9.42,9.3,12.63,15.4,3.21,6.1,4.81,12.99,4.81,20.69s-1.61,14.6-4.81,20.69c-3.21,6.1-7.42,11.23-12.63,15.4-5.21,4.17-11.19,7.34-17.92,9.5s-13.71,3.25-20.93,3.25-14.19-1.08-20.93-3.25-12.71-5.33-17.92-9.5c-5.21-4.17-9.42-9.3-12.63-15.4-3.21-6.09-4.81-12.99-4.81-20.69s1.6-14.59,4.81-20.69c3.21-6.09,7.42-11.23,12.63-15.4,5.21-4.17,11.19-7.34,17.92-9.5,6.74-2.17,13.71-3.25,20.93-3.25Zm-24.06,44.27c0,7.54.72,14.12,2.17,19.73,1.44,5.62,3.41,10.23,5.89,13.83,2.48,3.61,5.33,6.3,8.54,8.06,3.21,1.77,6.5,2.65,9.86,2.65,6.74,0,12.03-2.97,15.88-8.9,3.85-5.93,5.77-14.68,5.77-26.22,0-7.54-.72-14.11-2.17-19.73-1.44-5.61-3.41-10.23-5.89-13.83-2.49-3.61-5.33-6.29-8.54-8.06-3.21-1.76-6.5-2.65-9.86-2.65-6.74,0-12.03,2.97-15.88,8.9-3.85,5.94-5.77,14.68-5.77,26.23Z" style="stroke-width:0px;"/><path d="m495.14,421.45c0,5.77,1.76,9.95,5.29,12.51,3.53,2.57,9.62,4.01,18.29,4.33v4.81c-5.62-.32-11.23-.56-16.84-.72-5.62-.16-11.23-.24-16.84-.24s-11.23.08-16.84.24c-5.62.16-11.23.4-16.84.72v-4.81c5.29-.32,9.42-1.76,12.39-4.33,2.97-2.56,4.45-6.74,4.45-12.51v-47.64c0-5.77-1.48-9.94-4.45-12.51-2.97-2.56-7.1-4.01-12.39-4.33v-4.81c2.24,0,5.41-.2,9.5-.6,4.09-.4,8.34-.84,12.75-1.32,4.41-.48,8.58-1,12.51-1.56,3.93-.56,6.94-1,9.02-1.32v16.84c2.73-2.24,5.45-4.49,8.18-6.74,2.73-2.24,5.53-4.29,8.42-6.13,2.89-1.84,5.93-3.37,9.14-4.57,3.21-1.2,6.65-1.8,10.35-1.8,5.93,0,10.06,1.85,12.39,5.53,2.32,3.69,3.49,9.14,3.49,16.36-1.92.96-4.21,2.04-6.86,3.25s-5.29,2.41-7.94,3.61c-2.65,1.2-5.14,2.41-7.46,3.61-2.33,1.2-4.21,2.21-5.65,3.01l-2.89-1.92c1.12-.8,2.44-1.96,3.97-3.49s2.29-3.09,2.29-4.69c0-2.89-.84-5.01-2.53-6.38-1.68-1.36-3.89-2.04-6.62-2.04-1.12,0-2.53.36-4.21,1.08s-3.41,1.6-5.17,2.65c-1.77,1.04-3.45,2.25-5.05,3.61-1.6,1.37-2.89,2.69-3.85,3.97v48.36Z" style="stroke-width:0px;"/><path d="m533.63,351.2c6.1.32,12.07.56,17.92.72,5.85.16,11.83.24,17.92.24,5.13,0,10.18-.08,15.16-.24,4.97-.16,10.02-.4,15.16-.72v4.81c-3.37.48-6.54,1.73-9.5,3.73-2.97,2.01-4.45,5.09-4.45,9.26,0,3.05,1.04,7.3,3.13,12.75,2.08,5.46,4.49,11.19,7.22,17.2,2.73,6.02,5.45,11.83,8.18,17.44,2.73,5.62,4.73,10.11,6.02,13.47,1.28-3.21,3.29-7.74,6.01-13.59,2.73-5.85,5.49-11.91,8.3-18.17,2.8-6.26,5.29-12.19,7.46-17.8,2.17-5.61,3.25-9.78,3.25-12.51,0-4.33-1.44-7.38-4.33-9.14-2.89-1.76-6.26-2.65-10.11-2.65v-4.81c4.17.32,8.38.56,12.63.72,4.25.16,8.46.24,12.63.24,3.69,0,7.34-.08,10.95-.24,3.61-.16,7.26-.4,10.95-.72v4.81c-5.14,0-9.74,2.17-13.83,6.5-4.09,4.33-8.22,11.23-12.39,20.69-2.41,5.29-5.74,12.19-9.98,20.69-4.25,8.5-8.82,17.29-13.71,26.35-4.89,9.06-9.71,17.84-14.44,26.34-4.73,8.5-8.78,15.4-12.15,20.69-4.81,7.7-10.67,13.79-17.56,18.29-6.9,4.49-15.16,6.74-24.78,6.74-2.89,0-5.89-.52-9.02-1.56-3.13-1.04-5.97-2.53-8.54-4.45-2.56-1.92-4.69-4.29-6.38-7.1-1.68-2.81-2.53-5.98-2.53-9.5,0-4.81,1.44-8.9,4.33-12.27s6.9-5.05,12.03-5.05c4.01,0,7.42,1.28,10.23,3.85,2.8,2.56,4.21,5.85,4.21,9.86,0,1.44-.16,2.89-.48,4.33-.32,1.44-.48,2.89-.48,4.33,0,2.56,1.04,4.21,3.13,4.93,2.08.72,4.17,1.08,6.26,1.08,3.37,0,6.7-1.36,9.98-4.09,3.29-2.73,6.29-5.94,9.02-9.62,2.73-3.69,5.21-7.54,7.46-11.55,2.24-4.01,4.01-7.3,5.29-9.86l-36.33-79.64c-2.41-5.45-5.38-9.94-8.9-13.47-3.53-3.53-8.5-5.69-14.92-6.5v-4.81Z" style="stroke-width:0px;"/><path d="m340.46,71.26c0,8.53-1.45,16.3-4.34,23.3-2.9,7.01-6.85,13.33-11.88,18.96-5.02,5.64-10.96,10.44-17.82,14.39-6.85,3.96-14.09,7.16-21.7,9.59,9.74,6.1,18.73,12.11,26.95,18.04,8.22,5.94,15.3,12.49,21.24,19.64,5.94,7.16,10.58,15.23,13.93,24.21,3.35,8.99,5.02,19.57,5.02,31.75,0,15.84-3.58,29.01-10.73,39.51-7.16,10.51-16.3,18.96-27.41,25.35-11.12,6.39-23.38,10.88-36.77,13.48-13.4,2.58-26.49,3.88-39.29,3.88s-24.37-1.68-36.54-5.03c-12.18-3.35-23.23-8.52-33.12-15.53-9.9-7-17.89-15.76-23.98-26.27-6.1-10.51-9.14-22.76-9.14-36.77,0-20.71,6.01-37.61,18.04-50.71,12.03-13.09,27.18-23.45,45.45-31.06-5.79-4.57-11.65-9.36-17.59-14.39s-11.27-10.35-15.99-15.99c-4.73-5.63-8.53-11.88-11.42-18.73-2.9-6.85-4.34-14.39-4.34-22.61,0-13.4,2.74-24.9,8.22-34.49,5.48-9.59,12.63-17.43,21.47-23.53,8.83-6.09,18.88-10.66,30.15-13.7,11.26-3.04,22.68-4.57,34.26-4.57,10.96,0,22.23,1.22,33.8,3.65,11.57,2.44,22.08,6.47,31.52,12.11,9.44,5.64,17.13,13.02,23.07,22.16s8.91,20.26,8.91,33.35Zm-159.88,146.18c0,9.75,1.29,19.26,3.88,28.55,2.58,9.29,6.55,17.59,11.88,24.9,5.32,7.31,11.95,13.18,19.87,17.59,7.92,4.42,17.05,6.62,27.41,6.62,16.45,0,29.31-4.18,38.6-12.56,9.29-8.37,13.93-21.08,13.93-38.14,0-8.52-3.05-16.82-9.14-24.9-6.1-8.07-13.48-15.68-22.16-22.84-8.68-7.15-17.82-13.93-27.41-20.33-9.59-6.4-17.74-12.18-24.44-17.36-9.75,5.48-17.59,13.63-23.53,24.44-5.94,10.81-8.91,22.16-8.91,34.03Zm114.2-147.09c0-7.31-1.14-14.31-3.43-21.01-2.28-6.7-5.56-12.56-9.82-17.59-4.27-5.02-9.52-8.98-15.76-11.88-6.25-2.89-13.33-4.34-21.24-4.34-11.58,0-21.09,3.5-28.55,10.51-7.47,7.01-11.19,17.36-11.19,31.06,0,8.22,2.28,15.61,6.85,22.16,4.57,6.55,10.2,12.56,16.9,18.04,6.7,5.48,13.85,10.66,21.47,15.53,7.61,4.88,14.46,9.9,20.56,15.07,9.44-7.92,15.83-16.45,19.19-25.58,3.35-9.14,5.02-19.79,5.02-31.98Z" style="stroke-width:0px;"/><path d="m434.11,128.82l.91.91c2.74-.61,5.48-1.06,8.22-1.37,2.74-.3,5.32-.46,7.77-.46,29.54,0,51.08,7.62,64.64,22.84,13.55,15.23,20.33,36.09,20.33,62.58,0,16.75-3.2,31.45-9.59,44.08-6.4,12.64-15.07,23.07-26.04,31.29s-23.53,14.39-37.69,18.5-29.01,6.17-44.54,6.17c-11.88,0-23-1.53-33.35-4.57-10.36-3.05-19.49-7.38-27.41-13.02-7.92-5.63-14.16-12.48-18.73-20.56-4.57-8.07-6.85-17.13-6.85-27.18,0-9.14,3.17-16.45,9.52-21.93,6.35-5.48,13.45-8.22,21.31-8.22,8.77,0,16.02,2.28,21.76,6.85,5.74,4.57,8.62,10.36,8.62,17.36,0,6.1-.61,10.81-1.83,14.16-1.22,3.35-2.59,6.25-4.11,8.68.91,3.35,2.13,6.93,3.65,10.74,1.52,3.81,3.89,7.39,7.1,10.73,3.21,3.36,7.34,6.1,12.4,8.22,5.05,2.13,11.25,3.2,18.6,3.2,16.22,0,28.85-6.92,37.89-20.79,9.03-13.85,13.55-32.5,13.55-55.96,0-21.01-3.81-38.29-11.42-51.85-7.62-13.55-18.73-20.33-33.35-20.33-6.4,0-12.49,1.76-18.27,5.25-5.79,3.5-11.12,7.84-15.99,13.02l-12.79-8.68,84.05-106.44h-63.04c-7.92,0-14.32.61-19.19,1.83-4.88,1.22-9.06,3.35-12.56,6.4-3.5,3.05-6.78,7.24-9.82,12.56-3.05,5.33-6.55,12.26-10.51,20.79h-9.59L366.95,3.65c13.09.61,26.19,1.07,39.29,1.37,13.09.31,26.19.46,39.29.46,14.62,0,29.08-.15,43.4-.46,14.31-.3,28.78-.76,43.4-1.37l1.83,9.14-100.04,116.03Z" style="stroke-width:0px;"/></svg>